# xmcd
#
# Track frame offsets:
#	150
#	10792
#	21573
#	37888
#	55847
#	72699
#	87434
#	103581
#	120156
#	139091
#	157129
#	176489
#	192030
#	208636
#
# Disc length: 3029 seconds
#
# Revision: 1
# Processed by: cddbd v1.5.2PL0 Copyright (c) Steve Scherf et al.
# Submitted via: audiograbber 1.83.01
#
DISCID=bd0bd30e
DTITLE=Ronnie Milsap - Playlist: The Very Best of Ronnie Milsap
DYEAR=2008
DGENRE=Country
TTITLE0=Pure Love
TTITLE1=Daydreams About  Night Things
TTITLE2=It Was Almost Like A Song
TTITLE3=What A Difference You've Made In My Life
TTITLE4=Smoky Mountain Rain
TTITLE5=(There's) No Gettin' Over Me
TTITLE6=I Wouldn't Have Missed It For The World
TTITLE7=Any Day Now
TTITLE8=Stranger In My House
TTITLE9=She Loves My Car
TTITLE10=Lost In The Fifties Tonight (In The Still of the Night)
TTITLE11=Houston Solution
TTITLE12=Turn That Radio On
TTITLE13=All Is Fair In Love And War
EXTD=
EXTT0=
EXTT1=
EXTT2=
EXTT3=
EXTT4=
EXTT5=
EXTT6=
EXTT7=
EXTT8=
EXTT9=
EXTT10=
EXTT11=
EXTT12=
EXTT13=
PLAYORDER=
